<mxfile host="app.diagrams.net" agent="Mozilla/5.0 (Windows NT 10.0; Win64; x64) AppleWebKit/537.36 (KHTML, like Gecko) Chrome/128.0.0.0 Safari/537.36 Edg/128.0.0.0" version="24.7.14">
  <diagram name="Page-1" id="b520641d-4fe3-3701-9064-5fc419738815">
    <mxGraphModel dx="1042" dy="567" grid="1" gridSize="10" guides="1" tooltips="1" connect="1" arrows="1" fold="1" page="1" pageScale="1" pageWidth="1100" pageHeight="850" background="none" math="0" shadow="0">
      <root>
        <mxCell id="0" />
        <mxCell id="1" parent="0" />
        <mxCell id="21ea969265ad0168-6" value="projects" style="swimlane;html=1;fontStyle=0;childLayout=stackLayout;horizontal=1;startSize=26;fillColor=#e0e0e0;horizontalStack=0;resizeParent=1;resizeLast=0;collapsible=1;marginBottom=0;swimlaneFillColor=#ffffff;align=center;rounded=1;shadow=0;comic=0;labelBackgroundColor=none;strokeWidth=1;fontFamily=Verdana;fontSize=12;fontColor=#000000;" parent="1" vertex="1">
          <mxGeometry x="100" y="190" width="160" height="146" as="geometry" />
        </mxCell>
        <mxCell id="21ea969265ad0168-7" value="&lt;div style=&quot;background-color: rgb(250, 250, 250); font-family: &amp;quot;Source Code Pro&amp;quot;, Menlo, Consolas, monospace, Consolas, &amp;quot;Courier New&amp;quot;, monospace; font-size: 13px; line-height: 20px; white-space: pre;&quot;&gt;&lt;div style=&quot;line-height: 20px;&quot;&gt;&lt;div style=&quot;line-height: 20px;&quot;&gt;&lt;span style=&quot;&quot;&gt;&lt;b&gt;REFERENCENUM     PK&lt;/b&gt;&lt;/span&gt;&lt;/div&gt;&lt;/div&gt;&lt;/div&gt;" style="text;html=1;strokeColor=none;fillColor=none;spacingLeft=4;spacingRight=4;whiteSpace=wrap;overflow=hidden;rotatable=0;points=[[0,0.5],[1,0.5]];portConstraint=eastwest;fontColor=default;" parent="21ea969265ad0168-6" vertex="1">
          <mxGeometry y="26" width="160" height="26" as="geometry" />
        </mxCell>
        <mxCell id="PZufTCzIXzkl9HZhi7Wz-1" value="&lt;div style=&quot;background-color: rgb(250, 250, 250); font-family: &amp;quot;Source Code Pro&amp;quot;, Menlo, Consolas, monospace, Consolas, &amp;quot;Courier New&amp;quot;, monospace; font-size: 13px; line-height: 20px; white-space: pre;&quot;&gt;&lt;span style=&quot;&quot;&gt;NAME&lt;/span&gt;&lt;/div&gt;" style="text;html=1;strokeColor=none;fillColor=none;spacingLeft=4;spacingRight=4;whiteSpace=wrap;overflow=hidden;rotatable=0;points=[[0,0.5],[1,0.5]];portConstraint=eastwest;fontColor=default;" vertex="1" parent="21ea969265ad0168-6">
          <mxGeometry y="52" width="160" height="26" as="geometry" />
        </mxCell>
        <mxCell id="21ea969265ad0168-9" value="&lt;div style=&quot;background-color: rgb(250, 250, 250); font-family: &amp;quot;Source Code Pro&amp;quot;, Menlo, Consolas, monospace, Consolas, &amp;quot;Courier New&amp;quot;, monospace; font-size: 13px; line-height: 20px; white-space: pre;&quot;&gt;&lt;span style=&quot;&quot;&gt;GUID&lt;/span&gt;&lt;/div&gt;" style="text;html=1;strokeColor=none;fillColor=none;spacingLeft=4;spacingRight=4;whiteSpace=wrap;overflow=hidden;rotatable=0;points=[[0,0.5],[1,0.5]];portConstraint=eastwest;fontColor=default;" parent="21ea969265ad0168-6" vertex="1">
          <mxGeometry y="78" width="160" height="26" as="geometry" />
        </mxCell>
        <mxCell id="21ea969265ad0168-8" value="&lt;div style=&quot;background-color: rgb(250, 250, 250); font-family: &amp;quot;Source Code Pro&amp;quot;, Menlo, Consolas, monospace, Consolas, &amp;quot;Courier New&amp;quot;, monospace; font-size: 13px; line-height: 20px; white-space: pre;&quot;&gt;&lt;span style=&quot;&quot;&gt;TEMPLATEGUID&lt;/span&gt;&lt;/div&gt;" style="text;html=1;strokeColor=none;fillColor=none;spacingLeft=4;spacingRight=4;whiteSpace=wrap;overflow=hidden;rotatable=0;points=[[0,0.5],[1,0.5]];portConstraint=eastwest;fontColor=#000000;" parent="21ea969265ad0168-6" vertex="1">
          <mxGeometry y="104" width="160" height="26" as="geometry" />
        </mxCell>
        <mxCell id="PZufTCzIXzkl9HZhi7Wz-10" value="parameters_values" style="swimlane;html=1;fontStyle=0;childLayout=stackLayout;horizontal=1;startSize=26;fillColor=#e0e0e0;horizontalStack=0;resizeParent=1;resizeLast=0;collapsible=1;marginBottom=0;swimlaneFillColor=#ffffff;align=center;rounded=1;shadow=0;comic=0;labelBackgroundColor=none;strokeWidth=1;fontFamily=Verdana;fontSize=12;fontColor=#000000;" vertex="1" parent="1">
          <mxGeometry x="100" y="380" width="160" height="190" as="geometry" />
        </mxCell>
        <mxCell id="PZufTCzIXzkl9HZhi7Wz-11" value="&lt;div style=&quot;background-color: rgb(250, 250, 250); font-family: &amp;quot;Source Code Pro&amp;quot;, Menlo, Consolas, monospace, Consolas, &amp;quot;Courier New&amp;quot;, monospace; font-size: 13px; line-height: 20px; white-space: pre;&quot;&gt;&lt;div style=&quot;line-height: 20px;&quot;&gt;&lt;div style=&quot;line-height: 20px;&quot;&gt;&lt;span style=&quot;&quot;&gt;&lt;b&gt;GUID              PK&lt;/b&gt;&lt;/span&gt;&lt;/div&gt;&lt;/div&gt;&lt;/div&gt;" style="text;html=1;strokeColor=none;fillColor=none;spacingLeft=4;spacingRight=4;whiteSpace=wrap;overflow=hidden;rotatable=0;points=[[0,0.5],[1,0.5]];portConstraint=eastwest;fontColor=default;" vertex="1" parent="PZufTCzIXzkl9HZhi7Wz-10">
          <mxGeometry y="26" width="160" height="26" as="geometry" />
        </mxCell>
        <mxCell id="PZufTCzIXzkl9HZhi7Wz-16" value="PROJECTGUID" style="text;html=1;strokeColor=none;fillColor=none;spacingLeft=4;spacingRight=4;whiteSpace=wrap;overflow=hidden;rotatable=0;points=[[0,0.5],[1,0.5]];portConstraint=eastwest;fontColor=default;" vertex="1" parent="PZufTCzIXzkl9HZhi7Wz-10">
          <mxGeometry y="52" width="160" height="26" as="geometry" />
        </mxCell>
        <mxCell id="PZufTCzIXzkl9HZhi7Wz-12" value="&lt;div style=&quot;background-color: rgb(250, 250, 250); line-height: 20px;&quot;&gt;&lt;div style=&quot;line-height: 20px;&quot;&gt;&lt;font face=&quot;Source Code Pro, Menlo, Consolas, monospace, Consolas, Courier New, monospace&quot;&gt;&lt;span style=&quot;font-size: 13px; white-space: pre;&quot;&gt;PARAMETERNAME&lt;/span&gt;&lt;/font&gt;&lt;br&gt;&lt;/div&gt;&lt;/div&gt;" style="text;html=1;strokeColor=none;fillColor=none;spacingLeft=4;spacingRight=4;whiteSpace=wrap;overflow=hidden;rotatable=0;points=[[0,0.5],[1,0.5]];portConstraint=eastwest;fontColor=#000000;" vertex="1" parent="PZufTCzIXzkl9HZhi7Wz-10">
          <mxGeometry y="78" width="160" height="26" as="geometry" />
        </mxCell>
        <mxCell id="PZufTCzIXzkl9HZhi7Wz-13" value="&lt;div style=&quot;background-color: rgb(250, 250, 250); line-height: 20px;&quot;&gt;&lt;font face=&quot;Source Code Pro, Menlo, Consolas, monospace, Consolas, Courier New, monospace&quot;&gt;&lt;span style=&quot;font-size: 13px; white-space: pre;&quot;&gt;TEXTVAL&lt;/span&gt;&lt;/font&gt;&lt;br&gt;&lt;/div&gt;" style="text;html=1;strokeColor=none;fillColor=none;spacingLeft=4;spacingRight=4;whiteSpace=wrap;overflow=hidden;rotatable=0;points=[[0,0.5],[1,0.5]];portConstraint=eastwest;fontColor=default;" vertex="1" parent="PZufTCzIXzkl9HZhi7Wz-10">
          <mxGeometry y="104" width="160" height="26" as="geometry" />
        </mxCell>
        <mxCell id="PZufTCzIXzkl9HZhi7Wz-14" value="&lt;div style=&quot;background-color: rgb(250, 250, 250); line-height: 20px;&quot;&gt;&lt;font face=&quot;Source Code Pro, Menlo, Consolas, monospace, Consolas, Courier New, monospace&quot;&gt;&lt;span style=&quot;font-size: 13px; white-space: pre;&quot;&gt;NUMBERVAL&lt;/span&gt;&lt;/font&gt;&lt;br&gt;&lt;/div&gt;" style="text;html=1;strokeColor=none;fillColor=none;spacingLeft=4;spacingRight=4;whiteSpace=wrap;overflow=hidden;rotatable=0;points=[[0,0.5],[1,0.5]];portConstraint=eastwest;fontColor=default;" vertex="1" parent="PZufTCzIXzkl9HZhi7Wz-10">
          <mxGeometry y="130" width="160" height="26" as="geometry" />
        </mxCell>
        <mxCell id="PZufTCzIXzkl9HZhi7Wz-15" value="DATEVAL" style="text;html=1;strokeColor=none;fillColor=none;spacingLeft=4;spacingRight=4;whiteSpace=wrap;overflow=hidden;rotatable=0;points=[[0,0.5],[1,0.5]];portConstraint=eastwest;fontColor=default;" vertex="1" parent="PZufTCzIXzkl9HZhi7Wz-10">
          <mxGeometry y="156" width="160" height="26" as="geometry" />
        </mxCell>
        <mxCell id="PZufTCzIXzkl9HZhi7Wz-46" value="parameters_values" style="swimlane;html=1;fontStyle=0;childLayout=stackLayout;horizontal=1;startSize=26;fillColor=#e0e0e0;horizontalStack=0;resizeParent=1;resizeLast=0;collapsible=1;marginBottom=0;swimlaneFillColor=#ffffff;align=center;rounded=1;shadow=0;comic=0;labelBackgroundColor=none;strokeWidth=1;fontFamily=Verdana;fontSize=12;fontColor=#000000;" vertex="1" parent="1">
          <mxGeometry x="350" y="190" width="160" height="598" as="geometry" />
        </mxCell>
        <mxCell id="PZufTCzIXzkl9HZhi7Wz-49" value="&lt;div style=&quot;background-color: rgb(250, 250, 250); line-height: 20px;&quot;&gt;&lt;div style=&quot;line-height: 20px;&quot;&gt;&lt;span style=&quot;color: rgb(85, 85, 85); font-family: &amp;quot;Source Code Pro&amp;quot;, Menlo, Consolas, monospace; font-size: 13px; white-space-collapse: preserve; background-color: rgb(255, 255, 255);&quot;&gt;reference_num&lt;/span&gt;&lt;br&gt;&lt;/div&gt;&lt;/div&gt;" style="text;html=1;strokeColor=none;fillColor=none;spacingLeft=4;spacingRight=4;whiteSpace=wrap;overflow=hidden;rotatable=0;points=[[0,0.5],[1,0.5]];portConstraint=eastwest;fontColor=#000000;" vertex="1" parent="PZufTCzIXzkl9HZhi7Wz-46">
          <mxGeometry y="26" width="160" height="26" as="geometry" />
        </mxCell>
        <mxCell id="PZufTCzIXzkl9HZhi7Wz-50" value="&lt;div style=&quot;background-color: rgb(250, 250, 250); line-height: 20px;&quot;&gt;&lt;span style=&quot;color: rgb(85, 85, 85); font-family: &amp;quot;Source Code Pro&amp;quot;, Menlo, Consolas, monospace; font-size: 13px; white-space-collapse: preserve; background-color: rgb(255, 255, 255);&quot;&gt;report_name&lt;/span&gt;&lt;br&gt;&lt;/div&gt;" style="text;html=1;strokeColor=none;fillColor=none;spacingLeft=4;spacingRight=4;whiteSpace=wrap;overflow=hidden;rotatable=0;points=[[0,0.5],[1,0.5]];portConstraint=eastwest;fontColor=default;" vertex="1" parent="PZufTCzIXzkl9HZhi7Wz-46">
          <mxGeometry y="52" width="160" height="26" as="geometry" />
        </mxCell>
        <mxCell id="PZufTCzIXzkl9HZhi7Wz-48" value="&lt;span style=&quot;color: rgb(85, 85, 85); font-family: &amp;quot;Source Code Pro&amp;quot;, Menlo, Consolas, monospace; font-size: 13px; white-space-collapse: preserve; background-color: rgb(255, 255, 255);&quot;&gt;project_guid&lt;/span&gt;" style="text;html=1;strokeColor=none;fillColor=none;spacingLeft=4;spacingRight=4;whiteSpace=wrap;overflow=hidden;rotatable=0;points=[[0,0.5],[1,0.5]];portConstraint=eastwest;fontColor=default;" vertex="1" parent="PZufTCzIXzkl9HZhi7Wz-46">
          <mxGeometry y="78" width="160" height="26" as="geometry" />
        </mxCell>
        <mxCell id="PZufTCzIXzkl9HZhi7Wz-47" value="&lt;div style=&quot;background-color: rgb(250, 250, 250); font-family: &amp;quot;Source Code Pro&amp;quot;, Menlo, Consolas, monospace, Consolas, &amp;quot;Courier New&amp;quot;, monospace; font-size: 13px; line-height: 20px; white-space: pre;&quot;&gt;&lt;div style=&quot;line-height: 20px;&quot;&gt;&lt;div style=&quot;line-height: 20px;&quot;&gt;&lt;span style=&quot;color: rgb(85, 85, 85); font-family: &amp;quot;Source Code Pro&amp;quot;, Menlo, Consolas, monospace; text-wrap: wrap; background-color: rgb(255, 255, 255);&quot;&gt;referral_id&lt;/span&gt;&lt;br&gt;&lt;/div&gt;&lt;/div&gt;&lt;/div&gt;" style="text;html=1;strokeColor=none;fillColor=none;spacingLeft=4;spacingRight=4;whiteSpace=wrap;overflow=hidden;rotatable=0;points=[[0,0.5],[1,0.5]];portConstraint=eastwest;fontColor=default;" vertex="1" parent="PZufTCzIXzkl9HZhi7Wz-46">
          <mxGeometry y="104" width="160" height="26" as="geometry" />
        </mxCell>
        <mxCell id="PZufTCzIXzkl9HZhi7Wz-51" value="&lt;div style=&quot;background-color: rgb(250, 250, 250); line-height: 20px;&quot;&gt;&lt;span style=&quot;color: rgb(85, 85, 85); font-family: &amp;quot;Source Code Pro&amp;quot;, Menlo, Consolas, monospace; font-size: 13px; white-space-collapse: preserve; background-color: rgb(255, 255, 255);&quot;&gt;study_title&lt;/span&gt;&lt;br&gt;&lt;/div&gt;" style="text;html=1;strokeColor=none;fillColor=none;spacingLeft=4;spacingRight=4;whiteSpace=wrap;overflow=hidden;rotatable=0;points=[[0,0.5],[1,0.5]];portConstraint=eastwest;fontColor=default;" vertex="1" parent="PZufTCzIXzkl9HZhi7Wz-46">
          <mxGeometry y="130" width="160" height="26" as="geometry" />
        </mxCell>
        <mxCell id="PZufTCzIXzkl9HZhi7Wz-52" value="&lt;span style=&quot;color: rgb(85, 85, 85); font-family: &amp;quot;Source Code Pro&amp;quot;, Menlo, Consolas, monospace; font-size: 13px; white-space-collapse: preserve; background-color: rgb(255, 255, 255);&quot;&gt;study_number&lt;/span&gt;" style="text;html=1;strokeColor=none;fillColor=none;spacingLeft=4;spacingRight=4;whiteSpace=wrap;overflow=hidden;rotatable=0;points=[[0,0.5],[1,0.5]];portConstraint=eastwest;fontColor=default;" vertex="1" parent="PZufTCzIXzkl9HZhi7Wz-46">
          <mxGeometry y="156" width="160" height="26" as="geometry" />
        </mxCell>
        <mxCell id="PZufTCzIXzkl9HZhi7Wz-53" value="&lt;span style=&quot;color: rgb(85, 85, 85); font-family: &amp;quot;Source Code Pro&amp;quot;, Menlo, Consolas, monospace; font-size: 13px; white-space-collapse: preserve; background-color: rgb(255, 255, 255);&quot;&gt;manufacturing_name&lt;/span&gt;" style="text;html=1;strokeColor=none;fillColor=none;spacingLeft=4;spacingRight=4;whiteSpace=wrap;overflow=hidden;rotatable=0;points=[[0,0.5],[1,0.5]];portConstraint=eastwest;fontColor=default;" vertex="1" parent="PZufTCzIXzkl9HZhi7Wz-46">
          <mxGeometry y="182" width="160" height="26" as="geometry" />
        </mxCell>
        <mxCell id="PZufTCzIXzkl9HZhi7Wz-54" value="&lt;span style=&quot;color: rgb(85, 85, 85); font-family: &amp;quot;Source Code Pro&amp;quot;, Menlo, Consolas, monospace; font-size: 13px; white-space-collapse: preserve; background-color: rgb(255, 255, 255);&quot;&gt;active_ingredient&lt;/span&gt;" style="text;html=1;strokeColor=none;fillColor=none;spacingLeft=4;spacingRight=4;whiteSpace=wrap;overflow=hidden;rotatable=0;points=[[0,0.5],[1,0.5]];portConstraint=eastwest;fontColor=default;" vertex="1" parent="PZufTCzIXzkl9HZhi7Wz-46">
          <mxGeometry y="208" width="160" height="26" as="geometry" />
        </mxCell>
        <mxCell id="PZufTCzIXzkl9HZhi7Wz-55" value="&lt;span style=&quot;color: rgb(85, 85, 85); font-family: &amp;quot;Source Code Pro&amp;quot;, Menlo, Consolas, monospace; font-size: 13px; white-space-collapse: preserve; background-color: rgb(255, 255, 255);&quot;&gt;strength&lt;/span&gt;" style="text;html=1;strokeColor=none;fillColor=none;spacingLeft=4;spacingRight=4;whiteSpace=wrap;overflow=hidden;rotatable=0;points=[[0,0.5],[1,0.5]];portConstraint=eastwest;fontColor=default;" vertex="1" parent="PZufTCzIXzkl9HZhi7Wz-46">
          <mxGeometry y="234" width="160" height="26" as="geometry" />
        </mxCell>
        <mxCell id="PZufTCzIXzkl9HZhi7Wz-56" value="route" style="text;html=1;strokeColor=none;fillColor=none;spacingLeft=4;spacingRight=4;whiteSpace=wrap;overflow=hidden;rotatable=0;points=[[0,0.5],[1,0.5]];portConstraint=eastwest;fontColor=default;" vertex="1" parent="PZufTCzIXzkl9HZhi7Wz-46">
          <mxGeometry y="260" width="160" height="26" as="geometry" />
        </mxCell>
        <mxCell id="PZufTCzIXzkl9HZhi7Wz-57" value="dosage_form" style="text;html=1;strokeColor=none;fillColor=none;spacingLeft=4;spacingRight=4;whiteSpace=wrap;overflow=hidden;rotatable=0;points=[[0,0.5],[1,0.5]];portConstraint=eastwest;fontColor=default;" vertex="1" parent="PZufTCzIXzkl9HZhi7Wz-46">
          <mxGeometry y="286" width="160" height="26" as="geometry" />
        </mxCell>
        <mxCell id="PZufTCzIXzkl9HZhi7Wz-58" value="subject_identifier" style="text;html=1;strokeColor=none;fillColor=none;spacingLeft=4;spacingRight=4;whiteSpace=wrap;overflow=hidden;rotatable=0;points=[[0,0.5],[1,0.5]];portConstraint=eastwest;fontColor=default;" vertex="1" parent="PZufTCzIXzkl9HZhi7Wz-46">
          <mxGeometry y="312" width="160" height="26" as="geometry" />
        </mxCell>
        <mxCell id="PZufTCzIXzkl9HZhi7Wz-59" value="rld_indicator" style="text;html=1;strokeColor=none;fillColor=none;spacingLeft=4;spacingRight=4;whiteSpace=wrap;overflow=hidden;rotatable=0;points=[[0,0.5],[1,0.5]];portConstraint=eastwest;fontColor=default;" vertex="1" parent="PZufTCzIXzkl9HZhi7Wz-46">
          <mxGeometry y="338" width="160" height="26" as="geometry" />
        </mxCell>
        <mxCell id="PZufTCzIXzkl9HZhi7Wz-64" value="fda_received_date" style="text;html=1;strokeColor=none;fillColor=none;spacingLeft=4;spacingRight=4;whiteSpace=wrap;overflow=hidden;rotatable=0;points=[[0,0.5],[1,0.5]];portConstraint=eastwest;fontColor=default;" vertex="1" parent="PZufTCzIXzkl9HZhi7Wz-46">
          <mxGeometry y="364" width="160" height="26" as="geometry" />
        </mxCell>
        <mxCell id="PZufTCzIXzkl9HZhi7Wz-63" value="ae_date" style="text;html=1;strokeColor=none;fillColor=none;spacingLeft=4;spacingRight=4;whiteSpace=wrap;overflow=hidden;rotatable=0;points=[[0,0.5],[1,0.5]];portConstraint=eastwest;fontColor=default;" vertex="1" parent="PZufTCzIXzkl9HZhi7Wz-46">
          <mxGeometry y="390" width="160" height="26" as="geometry" />
        </mxCell>
        <mxCell id="PZufTCzIXzkl9HZhi7Wz-62" value="sae_subm_type" style="text;html=1;strokeColor=none;fillColor=none;spacingLeft=4;spacingRight=4;whiteSpace=wrap;overflow=hidden;rotatable=0;points=[[0,0.5],[1,0.5]];portConstraint=eastwest;fontColor=default;" vertex="1" parent="PZufTCzIXzkl9HZhi7Wz-46">
          <mxGeometry y="416" width="160" height="26" as="geometry" />
        </mxCell>
        <mxCell id="PZufTCzIXzkl9HZhi7Wz-61" value="follow_up_num" style="text;html=1;strokeColor=none;fillColor=none;spacingLeft=4;spacingRight=4;whiteSpace=wrap;overflow=hidden;rotatable=0;points=[[0,0.5],[1,0.5]];portConstraint=eastwest;fontColor=default;" vertex="1" parent="PZufTCzIXzkl9HZhi7Wz-46">
          <mxGeometry y="442" width="160" height="26" as="geometry" />
        </mxCell>
        <mxCell id="PZufTCzIXzkl9HZhi7Wz-68" value="&lt;span style=&quot;color: rgb(85, 85, 85); font-family: &amp;quot;Source Code Pro&amp;quot;, Menlo, Consolas, monospace; font-size: 13px; white-space-collapse: preserve; background-color: rgb(255, 255, 255);&quot;&gt;incident_description&lt;/span&gt;" style="text;html=1;strokeColor=none;fillColor=none;spacingLeft=4;spacingRight=4;whiteSpace=wrap;overflow=hidden;rotatable=0;points=[[0,0.5],[1,0.5]];portConstraint=eastwest;fontColor=default;" vertex="1" parent="PZufTCzIXzkl9HZhi7Wz-46">
          <mxGeometry y="468" width="160" height="26" as="geometry" />
        </mxCell>
        <mxCell id="PZufTCzIXzkl9HZhi7Wz-67" value="request_for_info" style="text;html=1;strokeColor=none;fillColor=none;spacingLeft=4;spacingRight=4;whiteSpace=wrap;overflow=hidden;rotatable=0;points=[[0,0.5],[1,0.5]];portConstraint=eastwest;fontColor=default;" vertex="1" parent="PZufTCzIXzkl9HZhi7Wz-46">
          <mxGeometry y="494" width="160" height="26" as="geometry" />
        </mxCell>
        <mxCell id="PZufTCzIXzkl9HZhi7Wz-66" value="final_disposition" style="text;html=1;strokeColor=none;fillColor=none;spacingLeft=4;spacingRight=4;whiteSpace=wrap;overflow=hidden;rotatable=0;points=[[0,0.5],[1,0.5]];portConstraint=eastwest;fontColor=default;" vertex="1" parent="PZufTCzIXzkl9HZhi7Wz-46">
          <mxGeometry y="520" width="160" height="26" as="geometry" />
        </mxCell>
        <mxCell id="PZufTCzIXzkl9HZhi7Wz-65" value="sae_outcome" style="text;html=1;strokeColor=none;fillColor=none;spacingLeft=4;spacingRight=4;whiteSpace=wrap;overflow=hidden;rotatable=0;points=[[0,0.5],[1,0.5]];portConstraint=eastwest;fontColor=default;" vertex="1" parent="PZufTCzIXzkl9HZhi7Wz-46">
          <mxGeometry y="546" width="160" height="26" as="geometry" />
        </mxCell>
        <mxCell id="PZufTCzIXzkl9HZhi7Wz-60" value="comments" style="text;html=1;strokeColor=none;fillColor=none;spacingLeft=4;spacingRight=4;whiteSpace=wrap;overflow=hidden;rotatable=0;points=[[0,0.5],[1,0.5]];portConstraint=eastwest;fontColor=default;" vertex="1" parent="PZufTCzIXzkl9HZhi7Wz-46">
          <mxGeometry y="572" width="160" height="26" as="geometry" />
        </mxCell>
        <mxCell id="PZufTCzIXzkl9HZhi7Wz-70" style="edgeStyle=orthogonalEdgeStyle;rounded=0;orthogonalLoop=1;jettySize=auto;html=1;exitX=1;exitY=0.5;exitDx=0;exitDy=0;entryX=0;entryY=0.5;entryDx=0;entryDy=0;" edge="1" parent="1" source="21ea969265ad0168-9" target="PZufTCzIXzkl9HZhi7Wz-48">
          <mxGeometry relative="1" as="geometry" />
        </mxCell>
        <mxCell id="PZufTCzIXzkl9HZhi7Wz-72" style="edgeStyle=orthogonalEdgeStyle;rounded=0;orthogonalLoop=1;jettySize=auto;html=1;exitX=1;exitY=0.5;exitDx=0;exitDy=0;entryX=0;entryY=0.5;entryDx=0;entryDy=0;" edge="1" parent="1" source="PZufTCzIXzkl9HZhi7Wz-16" target="PZufTCzIXzkl9HZhi7Wz-48">
          <mxGeometry relative="1" as="geometry">
            <Array as="points">
              <mxPoint x="290" y="445" />
              <mxPoint x="290" y="281" />
            </Array>
          </mxGeometry>
        </mxCell>
        <mxCell id="PZufTCzIXzkl9HZhi7Wz-73" style="edgeStyle=orthogonalEdgeStyle;rounded=0;orthogonalLoop=1;jettySize=auto;html=1;exitX=1;exitY=0.5;exitDx=0;exitDy=0;entryX=0;entryY=0.5;entryDx=0;entryDy=0;" edge="1" parent="1" source="21ea969265ad0168-7" target="PZufTCzIXzkl9HZhi7Wz-49">
          <mxGeometry relative="1" as="geometry" />
        </mxCell>
        <mxCell id="PZufTCzIXzkl9HZhi7Wz-75" style="edgeStyle=orthogonalEdgeStyle;rounded=0;orthogonalLoop=1;jettySize=auto;html=1;exitX=1;exitY=0.5;exitDx=0;exitDy=0;entryX=0;entryY=0.5;entryDx=0;entryDy=0;" edge="1" parent="1" source="PZufTCzIXzkl9HZhi7Wz-1" target="PZufTCzIXzkl9HZhi7Wz-50">
          <mxGeometry relative="1" as="geometry" />
        </mxCell>
        <mxCell id="PZufTCzIXzkl9HZhi7Wz-79" style="edgeStyle=orthogonalEdgeStyle;rounded=0;orthogonalLoop=1;jettySize=auto;html=1;exitX=1;exitY=0.5;exitDx=0;exitDy=0;entryX=0;entryY=0.5;entryDx=0;entryDy=0;" edge="1" parent="1" source="PZufTCzIXzkl9HZhi7Wz-13" target="PZufTCzIXzkl9HZhi7Wz-52">
          <mxGeometry relative="1" as="geometry" />
        </mxCell>
        <mxCell id="PZufTCzIXzkl9HZhi7Wz-81" style="edgeStyle=orthogonalEdgeStyle;rounded=0;orthogonalLoop=1;jettySize=auto;html=1;exitX=1;exitY=0.5;exitDx=0;exitDy=0;" edge="1" parent="1" source="PZufTCzIXzkl9HZhi7Wz-13" target="PZufTCzIXzkl9HZhi7Wz-54">
          <mxGeometry relative="1" as="geometry" />
        </mxCell>
        <mxCell id="PZufTCzIXzkl9HZhi7Wz-82" style="edgeStyle=orthogonalEdgeStyle;rounded=0;orthogonalLoop=1;jettySize=auto;html=1;exitX=1;exitY=0.5;exitDx=0;exitDy=0;" edge="1" parent="1" source="PZufTCzIXzkl9HZhi7Wz-13" target="PZufTCzIXzkl9HZhi7Wz-55">
          <mxGeometry relative="1" as="geometry" />
        </mxCell>
        <mxCell id="PZufTCzIXzkl9HZhi7Wz-83" style="edgeStyle=orthogonalEdgeStyle;rounded=0;orthogonalLoop=1;jettySize=auto;html=1;exitX=1;exitY=0.5;exitDx=0;exitDy=0;" edge="1" parent="1" source="PZufTCzIXzkl9HZhi7Wz-13" target="PZufTCzIXzkl9HZhi7Wz-56">
          <mxGeometry relative="1" as="geometry" />
        </mxCell>
        <mxCell id="PZufTCzIXzkl9HZhi7Wz-84" style="edgeStyle=orthogonalEdgeStyle;rounded=0;orthogonalLoop=1;jettySize=auto;html=1;exitX=1;exitY=0.5;exitDx=0;exitDy=0;entryX=0;entryY=0.5;entryDx=0;entryDy=0;" edge="1" parent="1" source="PZufTCzIXzkl9HZhi7Wz-13" target="PZufTCzIXzkl9HZhi7Wz-57">
          <mxGeometry relative="1" as="geometry" />
        </mxCell>
        <mxCell id="PZufTCzIXzkl9HZhi7Wz-85" style="edgeStyle=orthogonalEdgeStyle;rounded=0;orthogonalLoop=1;jettySize=auto;html=1;exitX=1;exitY=0.5;exitDx=0;exitDy=0;entryX=0;entryY=0.5;entryDx=0;entryDy=0;" edge="1" parent="1" source="PZufTCzIXzkl9HZhi7Wz-13" target="PZufTCzIXzkl9HZhi7Wz-58">
          <mxGeometry relative="1" as="geometry" />
        </mxCell>
        <mxCell id="PZufTCzIXzkl9HZhi7Wz-89" style="edgeStyle=orthogonalEdgeStyle;rounded=0;orthogonalLoop=1;jettySize=auto;html=1;exitX=1;exitY=0.5;exitDx=0;exitDy=0;entryX=0;entryY=0.5;entryDx=0;entryDy=0;" edge="1" parent="1" source="PZufTCzIXzkl9HZhi7Wz-13" target="PZufTCzIXzkl9HZhi7Wz-59">
          <mxGeometry relative="1" as="geometry" />
        </mxCell>
        <mxCell id="PZufTCzIXzkl9HZhi7Wz-92" style="edgeStyle=orthogonalEdgeStyle;rounded=0;orthogonalLoop=1;jettySize=auto;html=1;exitX=1;exitY=0.5;exitDx=0;exitDy=0;entryX=0;entryY=0.5;entryDx=0;entryDy=0;" edge="1" parent="1" source="PZufTCzIXzkl9HZhi7Wz-13" target="PZufTCzIXzkl9HZhi7Wz-62">
          <mxGeometry relative="1" as="geometry" />
        </mxCell>
        <mxCell id="PZufTCzIXzkl9HZhi7Wz-94" style="edgeStyle=orthogonalEdgeStyle;rounded=0;orthogonalLoop=1;jettySize=auto;html=1;exitX=1;exitY=0.5;exitDx=0;exitDy=0;entryX=0;entryY=0.5;entryDx=0;entryDy=0;" edge="1" parent="1" source="PZufTCzIXzkl9HZhi7Wz-13" target="PZufTCzIXzkl9HZhi7Wz-68">
          <mxGeometry relative="1" as="geometry" />
        </mxCell>
        <mxCell id="PZufTCzIXzkl9HZhi7Wz-96" style="edgeStyle=orthogonalEdgeStyle;rounded=0;orthogonalLoop=1;jettySize=auto;html=1;exitX=1;exitY=0.5;exitDx=0;exitDy=0;" edge="1" parent="1" source="PZufTCzIXzkl9HZhi7Wz-13" target="PZufTCzIXzkl9HZhi7Wz-51">
          <mxGeometry relative="1" as="geometry" />
        </mxCell>
        <mxCell id="PZufTCzIXzkl9HZhi7Wz-97" style="edgeStyle=orthogonalEdgeStyle;rounded=0;orthogonalLoop=1;jettySize=auto;html=1;exitX=1;exitY=0.5;exitDx=0;exitDy=0;" edge="1" parent="1" source="PZufTCzIXzkl9HZhi7Wz-13" target="PZufTCzIXzkl9HZhi7Wz-67">
          <mxGeometry relative="1" as="geometry" />
        </mxCell>
        <mxCell id="PZufTCzIXzkl9HZhi7Wz-98" style="edgeStyle=orthogonalEdgeStyle;rounded=0;orthogonalLoop=1;jettySize=auto;html=1;exitX=1;exitY=0.5;exitDx=0;exitDy=0;" edge="1" parent="1" source="PZufTCzIXzkl9HZhi7Wz-13" target="PZufTCzIXzkl9HZhi7Wz-66">
          <mxGeometry relative="1" as="geometry" />
        </mxCell>
        <mxCell id="PZufTCzIXzkl9HZhi7Wz-100" style="edgeStyle=orthogonalEdgeStyle;rounded=0;orthogonalLoop=1;jettySize=auto;html=1;exitX=1;exitY=0.5;exitDx=0;exitDy=0;" edge="1" parent="1" source="PZufTCzIXzkl9HZhi7Wz-13" target="PZufTCzIXzkl9HZhi7Wz-65">
          <mxGeometry relative="1" as="geometry" />
        </mxCell>
        <mxCell id="PZufTCzIXzkl9HZhi7Wz-101" style="edgeStyle=orthogonalEdgeStyle;rounded=0;orthogonalLoop=1;jettySize=auto;html=1;exitX=1;exitY=0.5;exitDx=0;exitDy=0;entryX=0;entryY=0.5;entryDx=0;entryDy=0;" edge="1" parent="1" source="PZufTCzIXzkl9HZhi7Wz-13" target="PZufTCzIXzkl9HZhi7Wz-60">
          <mxGeometry relative="1" as="geometry" />
        </mxCell>
        <mxCell id="PZufTCzIXzkl9HZhi7Wz-102" style="edgeStyle=orthogonalEdgeStyle;rounded=0;orthogonalLoop=1;jettySize=auto;html=1;exitX=1;exitY=0.5;exitDx=0;exitDy=0;entryX=0;entryY=0.5;entryDx=0;entryDy=0;" edge="1" parent="1" source="PZufTCzIXzkl9HZhi7Wz-13" target="PZufTCzIXzkl9HZhi7Wz-53">
          <mxGeometry relative="1" as="geometry" />
        </mxCell>
        <mxCell id="PZufTCzIXzkl9HZhi7Wz-103" style="edgeStyle=orthogonalEdgeStyle;rounded=0;orthogonalLoop=1;jettySize=auto;html=1;exitX=1;exitY=0.5;exitDx=0;exitDy=0;entryX=0;entryY=0.5;entryDx=0;entryDy=0;" edge="1" parent="1" source="PZufTCzIXzkl9HZhi7Wz-13" target="PZufTCzIXzkl9HZhi7Wz-47">
          <mxGeometry relative="1" as="geometry" />
        </mxCell>
        <mxCell id="PZufTCzIXzkl9HZhi7Wz-105" style="edgeStyle=orthogonalEdgeStyle;rounded=0;orthogonalLoop=1;jettySize=auto;html=1;exitX=1;exitY=0.5;exitDx=0;exitDy=0;entryX=0;entryY=0.5;entryDx=0;entryDy=0;" edge="1" parent="1" source="PZufTCzIXzkl9HZhi7Wz-15" target="PZufTCzIXzkl9HZhi7Wz-64">
          <mxGeometry relative="1" as="geometry">
            <Array as="points">
              <mxPoint x="280" y="549" />
              <mxPoint x="280" y="567" />
            </Array>
          </mxGeometry>
        </mxCell>
        <mxCell id="PZufTCzIXzkl9HZhi7Wz-106" style="edgeStyle=orthogonalEdgeStyle;rounded=0;orthogonalLoop=1;jettySize=auto;html=1;exitX=1;exitY=0.5;exitDx=0;exitDy=0;entryX=0.055;entryY=0.6;entryDx=0;entryDy=0;entryPerimeter=0;" edge="1" parent="1" source="PZufTCzIXzkl9HZhi7Wz-15" target="PZufTCzIXzkl9HZhi7Wz-63">
          <mxGeometry relative="1" as="geometry">
            <Array as="points">
              <mxPoint x="280" y="549" />
              <mxPoint x="280" y="596" />
            </Array>
          </mxGeometry>
        </mxCell>
        <mxCell id="PZufTCzIXzkl9HZhi7Wz-107" style="edgeStyle=orthogonalEdgeStyle;rounded=0;orthogonalLoop=1;jettySize=auto;html=1;exitX=1;exitY=0.5;exitDx=0;exitDy=0;entryX=0;entryY=0.5;entryDx=0;entryDy=0;" edge="1" parent="1" source="PZufTCzIXzkl9HZhi7Wz-14" target="PZufTCzIXzkl9HZhi7Wz-61">
          <mxGeometry relative="1" as="geometry">
            <Array as="points">
              <mxPoint x="290" y="523" />
              <mxPoint x="290" y="645" />
            </Array>
          </mxGeometry>
        </mxCell>
        <mxCell id="PZufTCzIXzkl9HZhi7Wz-109" value="" style="ellipse;whiteSpace=wrap;html=1;align=center;aspect=fixed;fillColor=none;strokeColor=none;resizable=0;perimeter=centerPerimeter;rotatable=0;allowArrows=0;points=[];outlineConnect=1;" vertex="1" parent="1">
          <mxGeometry x="635" y="570" width="10" height="10" as="geometry" />
        </mxCell>
        <mxCell id="PZufTCzIXzkl9HZhi7Wz-110" value="file" style="swimlane;html=1;fontStyle=0;childLayout=stackLayout;horizontal=1;startSize=26;fillColor=#e0e0e0;horizontalStack=0;resizeParent=1;resizeLast=0;collapsible=1;marginBottom=0;swimlaneFillColor=#ffffff;align=center;rounded=1;shadow=0;comic=0;labelBackgroundColor=none;strokeWidth=1;fontFamily=Verdana;fontSize=12;fontColor=#000000;" vertex="1" parent="1">
          <mxGeometry x="1180" y="180" width="150" height="96" as="geometry" />
        </mxCell>
        <mxCell id="PZufTCzIXzkl9HZhi7Wz-111" value="&lt;div style=&quot;background-color: rgb(250, 250, 250); line-height: 20px;&quot;&gt;&lt;div style=&quot;line-height: 20px;&quot;&gt;&lt;div style=&quot;line-height: 20px;&quot;&gt;&lt;font face=&quot;Source Code Pro, Menlo, Consolas, monospace, Consolas, Courier New, monospace&quot;&gt;&lt;span style=&quot;font-size: 13px; white-space: pre;&quot;&gt;&lt;b&gt;FILE_PK&lt;/b&gt;&lt;/span&gt;&lt;/font&gt;&lt;br&gt;&lt;/div&gt;&lt;/div&gt;&lt;/div&gt;" style="text;html=1;strokeColor=none;fillColor=none;spacingLeft=4;spacingRight=4;whiteSpace=wrap;overflow=hidden;rotatable=0;points=[[0,0.5],[1,0.5]];portConstraint=eastwest;fontColor=default;" vertex="1" parent="PZufTCzIXzkl9HZhi7Wz-110">
          <mxGeometry y="26" width="150" height="26" as="geometry" />
        </mxCell>
        <mxCell id="PZufTCzIXzkl9HZhi7Wz-112" value="&lt;div style=&quot;background-color: rgb(250, 250, 250); font-family: &amp;quot;Source Code Pro&amp;quot;, Menlo, Consolas, monospace, Consolas, &amp;quot;Courier New&amp;quot;, monospace; font-size: 13px; line-height: 20px; white-space: pre;&quot;&gt;&lt;span style=&quot;color: rgb(85, 85, 85); font-family: &amp;quot;Source Code Pro&amp;quot;, Menlo, Consolas, monospace; text-wrap: wrap; background-color: rgb(255, 255, 255);&quot;&gt;FILE_PATH&lt;/span&gt;&lt;br&gt;&lt;/div&gt;" style="text;html=1;strokeColor=none;fillColor=none;spacingLeft=4;spacingRight=4;whiteSpace=wrap;overflow=hidden;rotatable=0;points=[[0,0.5],[1,0.5]];portConstraint=eastwest;fontColor=default;" vertex="1" parent="PZufTCzIXzkl9HZhi7Wz-110">
          <mxGeometry y="52" width="150" height="26" as="geometry" />
        </mxCell>
        <mxCell id="PZufTCzIXzkl9HZhi7Wz-116" value="protocol" style="swimlane;html=1;fontStyle=0;childLayout=stackLayout;horizontal=1;startSize=26;fillColor=#e0e0e0;horizontalStack=0;resizeParent=1;resizeLast=0;collapsible=1;marginBottom=0;swimlaneFillColor=#ffffff;align=center;rounded=1;shadow=0;comic=0;labelBackgroundColor=none;strokeWidth=1;fontFamily=Verdana;fontSize=12;fontColor=#000000;" vertex="1" parent="1">
          <mxGeometry x="980" y="180" width="150" height="130" as="geometry" />
        </mxCell>
        <mxCell id="PZufTCzIXzkl9HZhi7Wz-117" value="&lt;div style=&quot;background-color: rgb(250, 250, 250); line-height: 20px;&quot;&gt;&lt;div style=&quot;line-height: 20px;&quot;&gt;&lt;div style=&quot;line-height: 20px;&quot;&gt;&lt;font face=&quot;Source Code Pro, Menlo, Consolas, monospace, Consolas, Courier New, monospace&quot;&gt;&lt;span style=&quot;font-size: 13px; white-space: pre;&quot;&gt;&lt;b&gt;pk_protocol&lt;/b&gt;&lt;/span&gt;&lt;/font&gt;&lt;br&gt;&lt;/div&gt;&lt;/div&gt;&lt;/div&gt;" style="text;html=1;strokeColor=none;fillColor=none;spacingLeft=4;spacingRight=4;whiteSpace=wrap;overflow=hidden;rotatable=0;points=[[0,0.5],[1,0.5]];portConstraint=eastwest;fontColor=default;" vertex="1" parent="PZufTCzIXzkl9HZhi7Wz-116">
          <mxGeometry y="26" width="150" height="26" as="geometry" />
        </mxCell>
        <mxCell id="PZufTCzIXzkl9HZhi7Wz-118" value="&lt;div style=&quot;background-color: rgb(250, 250, 250); line-height: 20px;&quot;&gt;&lt;font face=&quot;Source Code Pro, Menlo, Consolas, monospace&quot; color=&quot;#555555&quot;&gt;&lt;span style=&quot;font-size: 13px; white-space-collapse: preserve;&quot;&gt;app_study_number&lt;/span&gt;&lt;/font&gt;&lt;br&gt;&lt;/div&gt;" style="text;html=1;strokeColor=none;fillColor=none;spacingLeft=4;spacingRight=4;whiteSpace=wrap;overflow=hidden;rotatable=0;points=[[0,0.5],[1,0.5]];portConstraint=eastwest;fontColor=default;" vertex="1" parent="PZufTCzIXzkl9HZhi7Wz-116">
          <mxGeometry y="52" width="150" height="26" as="geometry" />
        </mxCell>
        <mxCell id="PZufTCzIXzkl9HZhi7Wz-120" value="protocol_clean" style="text;html=1;strokeColor=none;fillColor=none;spacingLeft=4;spacingRight=4;whiteSpace=wrap;overflow=hidden;rotatable=0;points=[[0,0.5],[1,0.5]];portConstraint=eastwest;fontColor=default;" vertex="1" parent="PZufTCzIXzkl9HZhi7Wz-116">
          <mxGeometry y="78" width="150" height="26" as="geometry" />
        </mxCell>
        <mxCell id="PZufTCzIXzkl9HZhi7Wz-119" value="application" style="text;html=1;strokeColor=none;fillColor=none;spacingLeft=4;spacingRight=4;whiteSpace=wrap;overflow=hidden;rotatable=0;points=[[0,0.5],[1,0.5]];portConstraint=eastwest;fontColor=default;" vertex="1" parent="PZufTCzIXzkl9HZhi7Wz-116">
          <mxGeometry y="104" width="150" height="26" as="geometry" />
        </mxCell>
        <mxCell id="PZufTCzIXzkl9HZhi7Wz-121" value="application" style="swimlane;html=1;fontStyle=0;childLayout=stackLayout;horizontal=1;startSize=20;fillColor=#e0e0e0;horizontalStack=0;resizeParent=1;resizeLast=0;collapsible=1;marginBottom=0;swimlaneFillColor=#ffffff;align=center;rounded=1;shadow=0;comic=0;labelBackgroundColor=none;strokeWidth=1;fontFamily=Verdana;fontSize=12;fontColor=#000000;" vertex="1" parent="1">
          <mxGeometry x="990" y="390" width="150" height="180" as="geometry" />
        </mxCell>
        <mxCell id="PZufTCzIXzkl9HZhi7Wz-122" value="&lt;div style=&quot;background-color: rgb(250, 250, 250); line-height: 20px;&quot;&gt;&lt;div style=&quot;line-height: 20px;&quot;&gt;&lt;div style=&quot;line-height: 20px;&quot;&gt;&lt;font face=&quot;Source Code Pro, Menlo, Consolas, monospace, Consolas, Courier New, monospace&quot;&gt;&lt;span style=&quot;font-size: 13px; white-space: pre;&quot;&gt;&lt;b&gt;application&lt;/b&gt;&lt;/span&gt;&lt;/font&gt;&lt;br&gt;&lt;/div&gt;&lt;/div&gt;&lt;/div&gt;" style="text;html=1;strokeColor=none;fillColor=none;spacingLeft=4;spacingRight=4;whiteSpace=wrap;overflow=hidden;rotatable=0;points=[[0,0.5],[1,0.5]];portConstraint=eastwest;fontColor=default;" vertex="1" parent="PZufTCzIXzkl9HZhi7Wz-121">
          <mxGeometry y="20" width="150" height="26" as="geometry" />
        </mxCell>
        <mxCell id="PZufTCzIXzkl9HZhi7Wz-123" value="&lt;div style=&quot;background-color: rgb(250, 250, 250); line-height: 20px;&quot;&gt;&lt;font face=&quot;Source Code Pro, Menlo, Consolas, monospace&quot; color=&quot;#555555&quot;&gt;&lt;span style=&quot;font-size: 13px; white-space-collapse: preserve;&quot;&gt;app_mfr_name&lt;/span&gt;&lt;/font&gt;&lt;br&gt;&lt;/div&gt;" style="text;html=1;strokeColor=none;fillColor=none;spacingLeft=4;spacingRight=4;whiteSpace=wrap;overflow=hidden;rotatable=0;points=[[0,0.5],[1,0.5]];portConstraint=eastwest;fontColor=default;" vertex="1" parent="PZufTCzIXzkl9HZhi7Wz-121">
          <mxGeometry y="46" width="150" height="26" as="geometry" />
        </mxCell>
        <mxCell id="PZufTCzIXzkl9HZhi7Wz-124" value="app_active_ingredient" style="text;html=1;strokeColor=none;fillColor=none;spacingLeft=4;spacingRight=4;whiteSpace=wrap;overflow=hidden;rotatable=0;points=[[0,0.5],[1,0.5]];portConstraint=eastwest;fontColor=default;" vertex="1" parent="PZufTCzIXzkl9HZhi7Wz-121">
          <mxGeometry y="72" width="150" height="26" as="geometry" />
        </mxCell>
        <mxCell id="PZufTCzIXzkl9HZhi7Wz-125" value="app_dosage_form" style="text;html=1;strokeColor=none;fillColor=none;spacingLeft=4;spacingRight=4;whiteSpace=wrap;overflow=hidden;rotatable=0;points=[[0,0.5],[1,0.5]];portConstraint=eastwest;fontColor=default;" vertex="1" parent="PZufTCzIXzkl9HZhi7Wz-121">
          <mxGeometry y="98" width="150" height="26" as="geometry" />
        </mxCell>
        <mxCell id="PZufTCzIXzkl9HZhi7Wz-135" value="app_route" style="text;html=1;strokeColor=none;fillColor=none;spacingLeft=4;spacingRight=4;whiteSpace=wrap;overflow=hidden;rotatable=0;points=[[0,0.5],[1,0.5]];portConstraint=eastwest;fontColor=default;" vertex="1" parent="PZufTCzIXzkl9HZhi7Wz-121">
          <mxGeometry y="124" width="150" height="26" as="geometry" />
        </mxCell>
        <mxCell id="PZufTCzIXzkl9HZhi7Wz-134" value="app_strength" style="text;html=1;strokeColor=none;fillColor=none;spacingLeft=4;spacingRight=4;whiteSpace=wrap;overflow=hidden;rotatable=0;points=[[0,0.5],[1,0.5]];portConstraint=eastwest;fontColor=default;" vertex="1" parent="PZufTCzIXzkl9HZhi7Wz-121">
          <mxGeometry y="150" width="150" height="26" as="geometry" />
        </mxCell>
        <mxCell id="PZufTCzIXzkl9HZhi7Wz-136" value="drugs" style="swimlane;html=1;fontStyle=0;childLayout=stackLayout;horizontal=1;startSize=26;fillColor=#e0e0e0;horizontalStack=0;resizeParent=1;resizeLast=0;collapsible=1;marginBottom=0;swimlaneFillColor=#ffffff;align=center;rounded=1;shadow=0;comic=0;labelBackgroundColor=none;strokeWidth=1;fontFamily=Verdana;fontSize=12;fontColor=#000000;" vertex="1" parent="1">
          <mxGeometry x="1220" y="345" width="150" height="260" as="geometry" />
        </mxCell>
        <mxCell id="PZufTCzIXzkl9HZhi7Wz-137" value="&lt;div style=&quot;background-color: rgb(250, 250, 250); line-height: 20px;&quot;&gt;&lt;div style=&quot;line-height: 20px;&quot;&gt;&lt;div style=&quot;line-height: 20px;&quot;&gt;&lt;font face=&quot;Source Code Pro, Menlo, Consolas, monospace, Consolas, Courier New, monospace&quot;&gt;&lt;span style=&quot;font-size: 13px; white-space: pre;&quot;&gt;&lt;b&gt;Center&lt;/b&gt;&lt;/span&gt;&lt;/font&gt;&lt;br&gt;&lt;/div&gt;&lt;/div&gt;&lt;/div&gt;" style="text;html=1;strokeColor=none;fillColor=none;spacingLeft=4;spacingRight=4;whiteSpace=wrap;overflow=hidden;rotatable=0;points=[[0,0.5],[1,0.5]];portConstraint=eastwest;fontColor=default;" vertex="1" parent="PZufTCzIXzkl9HZhi7Wz-136">
          <mxGeometry y="26" width="150" height="26" as="geometry" />
        </mxCell>
        <mxCell id="PZufTCzIXzkl9HZhi7Wz-138" value="&lt;div style=&quot;background-color: rgb(250, 250, 250); line-height: 20px;&quot;&gt;&lt;span style=&quot;color: rgb(85, 85, 85); font-family: &amp;quot;Source Code Pro&amp;quot;, Menlo, Consolas, monospace; font-size: 13px; white-space-collapse: preserve; background-color: rgb(255, 255, 255);&quot;&gt;Trade_Name&lt;/span&gt;&lt;br&gt;&lt;/div&gt;" style="text;html=1;strokeColor=none;fillColor=none;spacingLeft=4;spacingRight=4;whiteSpace=wrap;overflow=hidden;rotatable=0;points=[[0,0.5],[1,0.5]];portConstraint=eastwest;fontColor=default;" vertex="1" parent="PZufTCzIXzkl9HZhi7Wz-136">
          <mxGeometry y="52" width="150" height="26" as="geometry" />
        </mxCell>
        <mxCell id="PZufTCzIXzkl9HZhi7Wz-139" value="DFRoute" style="text;html=1;strokeColor=none;fillColor=none;spacingLeft=4;spacingRight=4;whiteSpace=wrap;overflow=hidden;rotatable=0;points=[[0,0.5],[1,0.5]];portConstraint=eastwest;fontColor=default;" vertex="1" parent="PZufTCzIXzkl9HZhi7Wz-136">
          <mxGeometry y="78" width="150" height="26" as="geometry" />
        </mxCell>
        <mxCell id="PZufTCzIXzkl9HZhi7Wz-140" value="Strength" style="text;html=1;strokeColor=none;fillColor=none;spacingLeft=4;spacingRight=4;whiteSpace=wrap;overflow=hidden;rotatable=0;points=[[0,0.5],[1,0.5]];portConstraint=eastwest;fontColor=default;" vertex="1" parent="PZufTCzIXzkl9HZhi7Wz-136">
          <mxGeometry y="104" width="150" height="26" as="geometry" />
        </mxCell>
        <mxCell id="PZufTCzIXzkl9HZhi7Wz-141" value="Action_Date" style="text;html=1;strokeColor=none;fillColor=none;spacingLeft=4;spacingRight=4;whiteSpace=wrap;overflow=hidden;rotatable=0;points=[[0,0.5],[1,0.5]];portConstraint=eastwest;fontColor=default;" vertex="1" parent="PZufTCzIXzkl9HZhi7Wz-136">
          <mxGeometry y="130" width="150" height="26" as="geometry" />
        </mxCell>
        <mxCell id="PZufTCzIXzkl9HZhi7Wz-142" value="Appl_No" style="text;html=1;strokeColor=none;fillColor=none;spacingLeft=4;spacingRight=4;whiteSpace=wrap;overflow=hidden;rotatable=0;points=[[0,0.5],[1,0.5]];portConstraint=eastwest;fontColor=default;" vertex="1" parent="PZufTCzIXzkl9HZhi7Wz-136">
          <mxGeometry y="156" width="150" height="26" as="geometry" />
        </mxCell>
        <mxCell id="PZufTCzIXzkl9HZhi7Wz-143" value="&lt;span style=&quot;color: rgb(85, 85, 85); font-family: &amp;quot;Source Code Pro&amp;quot;, Menlo, Consolas, monospace; font-size: 13px; white-space-collapse: preserve; background-color: rgb(255, 255, 255);&quot;&gt;Appl_Type&lt;/span&gt;" style="text;html=1;strokeColor=none;fillColor=none;spacingLeft=4;spacingRight=4;whiteSpace=wrap;overflow=hidden;rotatable=0;points=[[0,0.5],[1,0.5]];portConstraint=eastwest;fontColor=default;" vertex="1" parent="PZufTCzIXzkl9HZhi7Wz-136">
          <mxGeometry y="182" width="150" height="26" as="geometry" />
        </mxCell>
        <mxCell id="PZufTCzIXzkl9HZhi7Wz-144" value="Product_No" style="text;html=1;strokeColor=none;fillColor=none;spacingLeft=4;spacingRight=4;whiteSpace=wrap;overflow=hidden;rotatable=0;points=[[0,0.5],[1,0.5]];portConstraint=eastwest;fontColor=default;" vertex="1" parent="PZufTCzIXzkl9HZhi7Wz-136">
          <mxGeometry y="208" width="150" height="26" as="geometry" />
        </mxCell>
        <mxCell id="PZufTCzIXzkl9HZhi7Wz-145" value="&lt;span style=&quot;color: rgb(85, 85, 85); font-family: &amp;quot;Source Code Pro&amp;quot;, Menlo, Consolas, monospace; font-size: 13px; white-space-collapse: preserve; background-color: rgb(255, 255, 255);&quot;&gt;Applicant_Full_Name&lt;/span&gt;" style="text;html=1;strokeColor=none;fillColor=none;spacingLeft=4;spacingRight=4;whiteSpace=wrap;overflow=hidden;rotatable=0;points=[[0,0.5],[1,0.5]];portConstraint=eastwest;fontColor=default;" vertex="1" parent="PZufTCzIXzkl9HZhi7Wz-136">
          <mxGeometry y="234" width="150" height="26" as="geometry" />
        </mxCell>
      </root>
    </mxGraphModel>
  </diagram>
</mxfile>
